A fourteen year old lad discovers his first love at the point of his pencil whilst drawing the portrait of a sickly but coquettish fifteen year old girl. In the neighbourhood an old freedom-fighter pits himself against bad types, a pretty cinema-ticket girl takes to the streets at night and a young anarchist dedicates himself to telling tall stories. Far away, in Shanghai, a hero of the Republic meets a beautiful femme fatal with oriental eyes. Reality and fiction become fused in an embrace.

English Subtitles

IMDB: http://www.imdb.com/title/tt0264571

Screenshoots:
 
http://img98.imageshack.us/img98/1200/vlcsnap00016e.png 
http://img3.imageshack.us/img3/4205/vlcsnap00015g.png 
http://img827.imageshack.us/img827/1166/vlcsnap000141.png


      Format : AVI
      Format/Info : Audio Video Interleave
      File size : 1.36 GiB
      Duration : 1h 54mn
      Overall bit rate : 1 703 Kbps
      Writing application : VirtualDubMod 1.5.10.2 (build 2540/release)
      Writing library : VirtualDubMod build 2540/release
   Video #0
      ID : 0
      Format : MPEG-4 Visual
      Format profile : AdvancedSimple@L5
      Format settings, BVOP : Yes
      Format settings, QPel : No
      Format settings, GMC : No warppoints
      Format settings, Matrix : Default (H.263)
      Muxing mode : Packed bitstream
      Codec ID : XVID
      Codec ID/Hint : XviD
      Duration : 1h 54mn
      Bit rate : 1 437 Kbps
      Width : 720 pixels
      Height : 304 pixels
      Display aspect ratio : 2.35:1
      Frame rate : 25.000 fps
      Resolution : 24 bits
      Colorimetry : 4:2:0
      Scan type : Progressive
      Bits/(Pixel*Frame) : 0.263
      Stream size : 1.15 GiB (84%)
      Writing library : XviD 1.2.1 (UTC 2008-12-04)
   Audio #1
      ID : 1
      Format : AC-3
      Format/Info : Audio Coding 3
      Codec ID : 2000
      Duration : 1h 54mn
      Bit rate mode : Constant
      Bit rate : 256 Kbps
      Channel(s) : 6 channels
      Channel positions : Front: L C R, Surround: L R, LFE
      Sampling rate : 48.0 KHz
      Stream size : 210 MiB (15%)
      Alignment : Split accross interleaves
      Interleave, duration : 40 ms (1.00 video frame)
      Interleave, preload duration : 500 ms


Upped KG: sphenoid